<svg width="509" height="102" xmlns="http://www.w3.org/2000/svg" version="1.1">

 <g>
  <title>Layer 1</title>
  <g id="g18">
   <path fill="#f0b90b" d="m23.13,51.18l-11.57,11.56l-11.56,-11.56l11.56,-11.56l11.57,11.56zm28.05,-28.07l19.81,19.82l11.56,-11.56l-31.37,-31.37l-31.37,31.37l11.56,11.56l19.81,-19.82zm39.63,16.51l-11.56,11.56l11.56,11.56l11.55,-11.56l-11.55,-11.56zm-39.63,39.63l-19.81,-19.81l-11.56,11.55l31.37,31.37l31.37,-31.37l-11.56,-11.55l-19.81,19.81zm0,-16.51l11.56,-11.56l-11.56,-11.56l-11.56,11.56l11.56,11.56zm122,1.11l0,-0.16c0,-7.54 -4,-11.31 -10.51,-13.79c4,-2.25 7.38,-5.78 7.38,-12.11l0,-0.16c0,-8.82 -7.06,-14.52 -18.53,-14.52l-26.04,0l0,56.14l26.7,0c12.67,0 21.02,-5.13 21.02,-15.4l-0.02,0zm-15.4,-24c0,4.17 -3.45,5.94 -8.9,5.94l-11.37,0l0,-11.85l12.19,0c5.21,0 8.1,2.08 8.1,5.77l-0.02,0.14zm3.13,22.46c0,4.17 -3.29,6.09 -8.75,6.09l-14.65,0l0,-12.33l14.27,0c6.34,0 9.15,2.33 9.15,6.1l-0.02,0.14zm38.22,16.94l0,-56.14l-12.39,0l0,56.14l12.39,0zm66.39,0l0,-56.14l-12.23,0l0,34.57l-26.3,-34.57l-11.39,0l0,56.14l12.19,0l0,-35.69l27.18,35.69l10.55,0zm68.41,0l-24.1,-56.54l-11.39,0l-24.05,56.54l12.59,0l5.15,-12.59l23.74,0l5.13,12.59l12.93,0zm-22.45,-23.5l-14.96,0l7.46,-18.2l7.5,18.2zm81.32,23.5l0,-56.14l-12.23,0l0,34.57l-26.31,-34.57l-11.38,0l0,56.14l12.18,0l0,-35.69l27.19,35.69l10.55,0zm63.75,-9.06l-7.85,-7.94c-4.41,4 -8.34,6.57 -14.76,6.57c-9.62,0 -16.28,-8 -16.28,-17.64l0,-0.16c0,-9.62 6.82,-17.48 16.28,-17.48c5.61,0 10,2.4 14.36,6.33l7.83,-9.06c-5.21,-5.13 -11.54,-8.66 -22.13,-8.66c-17.24,0 -29.27,13.07 -29.27,29l0,0.16c0,16.12 12.27,28.87 28.79,28.87c10.81,0.03 17.22,-3.82 22.99,-9.99l0.04,0zm52.7,9.06l0,-11l-30.52,0l0,-11.81l26.47,0l0,-11l-26.47,0l0,-11.34l30.08,0l0,-11l-42.35,0l0,56.14l42.79,0.01z" id="path16"/>
  </g>
 </g>
</svg>