<svg width="87" height="34" xmlns="http://www.w3.org/2000/svg" fill="none">

 <g>
  <title>Layer 1</title>
  <path id="svg_1" fill="#F7A600" d="m62.0083,25.3572l0,-22.3572l4.4939,0l0,22.3572l-4.4939,0z"/>
  <path id="svg_2" fill="#000000" d="m9.63407,31.9983l-9.63407,0l0,-22.35719l9.24666,0c4.49394,0 7.11244,2.44919 7.11244,6.28029c0,2.4799 -1.6817,4.0825 -2.8457,4.6161c1.3894,0.6277 3.1679,2.0404 3.1679,5.0249c0,4.1749 -2.9407,6.4359 -7.04723,6.4359zm-0.74311,-18.4628l-4.39706,0l0,5.1497l4.39706,0c1.90714,0 2.97424,-1.0364 2.97424,-2.5757c0,-1.5376 -1.0671,-2.574 -2.97424,-2.574zm0.29055,9.0749l-4.68761,0l0,5.4952l4.68761,0c2.03739,0 3.00589,-1.2553 3.00589,-2.7638c0,-1.5068 -0.9703,-2.7314 -3.00589,-2.7314z"/>
  <path id="svg_3" fill="#000000" d="m30.3882,22.8293l0,9.169l-4.4622,0l0,-9.169l-6.9187,-13.18819l4.8813,0l4.3002,9.01159l4.2351,-9.01159l4.8813,0l-6.917,13.18819z"/>
  <path id="svg_4" fill="#000000" d="m50.0457,31.9983l-9.6341,0l0,-22.35719l9.2467,0c4.4939,0 7.1124,2.44919 7.1124,6.28029c0,2.4799 -1.6817,4.0825 -2.8457,4.6161c1.3894,0.6277 3.168,2.0404 3.168,5.0249c0,4.1749 -2.9408,6.4359 -7.0473,6.4359zm-0.7431,-18.4628l-4.3971,0l0,5.1497l4.3971,0c1.9071,0 2.9742,-1.0364 2.9742,-2.5757c0,-1.5376 -1.0671,-2.574 -2.9742,-2.574zm0.2905,9.0749l-4.6876,0l0,5.4952l4.6876,0c2.0374,0 3.0059,-1.2553 3.0059,-2.7638c0,-1.5068 -0.9685,-2.7314 -3.0059,-2.7314z"/>
  <path id="svg_5" fill="#000000" d="m80.986,13.5355l0,18.4645l-4.4939,0l0,-18.4645l-6.0136,0l0,-3.89439l16.5211,0l0,3.89439l-6.0136,0z"/>
 </g>
</svg>