<svg width="747" height="224" xmlns="http://www.w3.org/2000/svg" fill="none">

 <g>
  <title>Layer 1</title>
  <g id="svg_11">
   <path id="svg_2" fill="black" d="m219.01599,0l-214.039,0c-1.32,0 -2.586,0.524 -3.519,1.458c-0.934,0.933 -1.458,2.199 -1.458,3.52l0,214.039c0,1.32 0.524,2.586 1.458,3.519c0.933,0.934 2.199,1.458 3.519,1.458l214.039,0c1.321,0 2.587,-0.524 3.52,-1.458c0.934,-0.933 1.458,-2.199 1.458,-3.519l0,-214.039c0,-1.321 -0.524,-2.587 -1.458,-3.52c-0.933,-0.934 -2.199,-1.458 -3.52,-1.458zm-69.687,144.352c0,1.32 -0.524,2.586 -1.458,3.52c-0.933,0.933 -2.199,1.458 -3.519,1.458l-64.71,0c-1.32,0 -2.586,-0.525 -3.52,-1.458c-0.933,-0.934 -1.457,-2.2 -1.457,-3.52l0,-64.71c0,-1.32 0.524,-2.586 1.457,-3.519c0.934,-0.934 2.2,-1.458 3.52,-1.458l64.71,0c1.32,0 2.586,0.524 3.519,1.458c0.934,0.933 1.458,2.199 1.458,3.519l0,64.71z"/>
   <path id="svg_3" fill="black" d="m667.12899,74.673l-64.709,0c-2.749,0 -4.978,2.228 -4.978,4.977l0,64.71c0,2.749 2.229,4.978 4.978,4.978l64.709,0c2.749,0 4.978,-2.229 4.978,-4.978l0,-64.71c0,-2.749 -2.229,-4.977 -4.978,-4.977z"/>
   <path id="svg_4" fill="black" d="m592.43399,0.006l-64.709,0c-2.749,0 -4.978,2.228 -4.978,4.978l0,64.709c0,2.749 2.229,4.978 4.978,4.978l64.709,0c2.75,0 4.978,-2.229 4.978,-4.978l0,-64.709c0,-2.75 -2.228,-4.978 -4.978,-4.978z"/>
   <path id="svg_5" fill="black" d="m741.76399,0.006l-64.71,0c-2.749,0 -4.978,2.228 -4.978,4.978l0,64.709c0,2.749 2.229,4.978 4.978,4.978l64.71,0c2.749,0 4.977,-2.229 4.977,-4.978l0,-64.709c0,-2.75 -2.228,-4.978 -4.977,-4.978z"/>
   <path id="svg_6" fill="black" d="m592.43399,149.334l-64.709,0c-2.749,0 -4.978,2.228 -4.978,4.977l0,64.71c0,2.749 2.229,4.978 4.978,4.978l64.709,0c2.75,0 4.978,-2.229 4.978,-4.978l0,-64.71c0,-2.749 -2.228,-4.977 -4.978,-4.977z"/>
   <path id="svg_7" fill="black" d="m741.76399,149.334l-64.71,0c-2.749,0 -4.978,2.228 -4.978,4.977l0,64.71c0,2.749 2.229,4.978 4.978,4.978l64.71,0c2.749,0 4.977,-2.229 4.977,-4.978l0,-64.71c0,-2.749 -2.228,-4.977 -4.977,-4.977z"/>
   <path id="svg_8" fill="black" d="m480.34299,0.006l-64.709,0c-2.749,0 -4.978,2.228 -4.978,4.978l0,64.709c0,2.749 2.229,4.978 4.978,4.978l64.709,0c2.749,0 4.978,-2.229 4.978,-4.978l0,-64.709c0,-2.75 -2.229,-4.978 -4.978,-4.978z"/>
   <path id="svg_9" fill="black" d="m480.34299,149.334l-64.709,0c-2.749,0 -4.978,2.228 -4.978,4.977l0,64.71c0,2.749 2.229,4.978 4.978,4.978l64.709,0c2.749,0 4.978,-2.229 4.978,-4.978l0,-64.71c0,-2.749 -2.229,-4.977 -4.978,-4.977z"/>
   <path id="svg_10" fill="black" d="m410.65599,79.586c0,-1.32 -0.525,-2.586 -1.458,-3.519c-0.934,-0.934 -2.2,-1.458 -3.52,-1.458l-69.687,0l0,-69.631c0,-1.321 -0.525,-2.587 -1.458,-3.52c-0.934,-0.934 -2.2,-1.458 -3.52,-1.458l-64.709,0c-1.321,0 -2.587,0.524 -3.52,1.458c-0.934,0.933 -1.458,2.199 -1.458,3.52l0,213.927c0,1.32 0.524,2.586 1.458,3.519c0.933,0.934 2.199,1.458 3.52,1.458l64.709,0c1.32,0 2.586,-0.524 3.52,-1.458c0.933,-0.933 1.458,-2.199 1.458,-3.519l0,-69.631l69.687,0c1.32,0 2.586,-0.525 3.52,-1.458c0.933,-0.934 1.458,-2.2 1.458,-3.52l0,-64.71z"/>
  </g>
 </g>
</svg>