<svg width="107" height="20" viewBox="0 0 107 20" fill="none" xmlns="http://www.w3.org/2000/svg">
<path fill-rule="evenodd" clip-rule="evenodd" d="M24.5193 3.11707H8.20558L7.88609 4.05768H24.1746L24.5193 3.11707ZM25.3441 4.05768H26.6452L23.4318 12.6674H7.25212L4.82031 19.4694H5.81923L7.91476 13.608H24.0847L28.0002 3.11707H25.6887L25.3441 4.05768Z" fill="#312BBF"/>
<path fill-rule="evenodd" clip-rule="evenodd" d="M24.2985 1H5.82236L4.68833 4.10403H20.6863L19.4666 7.45099H3.47063L3.45035 7.52719L0 16.9981L3.2796 16.9979L5.62538 10.555H21.7743L21.7762 10.5475L21.81 10.5475L25.2883 1.00089L24.2983 1.0009L24.2985 1Z" fill="#554BEB"/>
<path d="M36.5371 11.9265V17.5H34.0005V2.5H39.585C41.2159 2.5 42.5093 2.93613 43.4651 3.80838C44.4276 4.68063 44.9088 5.83448 44.9088 7.26992C44.9088 8.7397 44.4376 9.88324 43.4951 10.7005C42.5594 11.5179 41.246 11.9265 39.5549 11.9265H36.5371ZM36.5371 9.83516H39.585C40.4873 9.83516 41.1758 9.61882 41.6504 9.18613C42.1249 8.74657 42.3622 8.1147 42.3622 7.29052C42.3622 6.48008 42.1216 5.83448 41.6403 5.35371C41.1591 4.86607 40.4974 4.61538 39.6552 4.60165H36.5371V9.83516Z" fill="#554BEB"/>
<path d="M55.6668 10.8036H49.6712V15.419H56.6794V17.5H47.1346V2.5H56.6092V4.60165H49.6712V8.74313H55.6668V10.8036Z" fill="#554BEB"/>
<path d="M63.7678 7.91896L66.8358 2.5H69.7634L65.3519 9.93819L69.8636 17.5H66.906L63.7678 11.9986L60.6196 17.5H57.672L62.1937 9.93819L57.7722 2.5H60.6998L63.7678 7.91896Z" fill="#554BEB"/>
<path d="M74.2751 11.9265V17.5H71.7385V2.5H77.323C78.9539 2.5 80.2473 2.93613 81.2031 3.80838C82.1656 4.68063 82.6468 5.83448 82.6468 7.26992C82.6468 8.7397 82.1756 9.88324 81.2332 10.7005C80.2974 11.5179 78.984 11.9265 77.2929 11.9265H74.2751ZM74.2751 9.83516H77.323C78.2254 9.83516 78.9138 9.61882 79.3884 9.18613C79.8629 8.74657 80.1002 8.1147 80.1002 7.29052C80.1002 6.48008 79.8596 5.83448 79.3784 5.35371C78.8971 4.86607 78.2354 4.61538 77.3932 4.60165H74.2751V9.83516Z" fill="#554BEB"/>
<path d="M91.2592 14.0076H85.6045L84.4215 17.5H81.7846L87.2989 2.5H89.5748L95.0992 17.5H92.4523L91.2592 14.0076ZM86.3164 11.9059H90.5474L88.4319 5.68338L86.3164 11.9059Z" fill="#554BEB"/>
<path d="M100.022 9.60852L103.381 2.5H106.188L101.295 11.978V17.5H98.7487V11.978L93.8459 2.5H96.6632L100.022 9.60852Z" fill="#554BEB"/>
</svg>
